<?xml version="1.0" encoding="UTF-8" standalone="no"?>
<!-- Created with Inkscape (http://www.inkscape.org/) -->

<svg
   xmlns:dc="http://purl.org/dc/elements/1.1/"
   xmlns:cc="http://creativecommons.org/ns#"
   xmlns:rdf="http://www.w3.org/1999/02/22-rdf-syntax-ns#"
   xmlns:svg="http://www.w3.org/2000/svg"
   xmlns="http://www.w3.org/2000/svg"
   xmlns:sodipodi="http://sodipodi.sourceforge.net/DTD/sodipodi-0.dtd"
   xmlns:inkscape="http://www.inkscape.org/namespaces/inkscape"
   width="64px"
   height="64px"
   id="svg18812"
   version="1.1"
   inkscape:version="0.48.4 r9939"
   sodipodi:docname="Nowy dokument 76">
  <defs
     id="defs18814" />
  <sodipodi:namedview
     id="base"
     pagecolor="#ffffff"
     bordercolor="#666666"
     borderopacity="1.0"
     inkscape:pageopacity="0.0"
     inkscape:pageshadow="2"
     inkscape:zoom="11"
     inkscape:cx="24.11851"
     inkscape:cy="33.917119"
     inkscape:current-layer="layer1"
     showgrid="true"
     inkscape:document-units="px"
     inkscape:grid-bbox="true"
     inkscape:window-width="1920"
     inkscape:window-height="1030"
     inkscape:window-x="0"
     inkscape:window-y="25"
     inkscape:window-maximized="1" />
  <metadata
     id="metadata18817">
    <rdf:RDF>
      <cc:Work
         rdf:about="">
        <dc:format>image/svg+xml</dc:format>
        <dc:type
           rdf:resource="http://purl.org/dc/dcmitype/StillImage" />
        <dc:title></dc:title>
      </cc:Work>
    </rdf:RDF>
  </metadata>
  <g
     id="layer1"
     inkscape:label="Layer 1"
     inkscape:groupmode="layer">
    <g
       transform="matrix(0.11325066,0,0,0.11325066,65.592892,-35.991237)"
       style="display:inline"
       id="g18769">
      <g
         transform="translate(-652,44)"
         id="g18567">
        <rect
           ry="17.718493"
           y="279.8974"
           x="78.67218"
           height="554.77216"
           width="554.77216"
           id="rect4539"
           style="fill:#faff66;fill-opacity:1;stroke:#faff66;stroke-width:10.34597111;stroke-linecap:round;stroke-linejoin:round;stroke-miterlimit:53;stroke-opacity:1;stroke-dasharray:none;stroke-dashoffset:243.95000458;display:inline" />
        <path
           sodipodi:nodetypes="cccc"
           inkscape:connector-curvature="0"
           id="rect3877"
           d="m 241.94804,817.67238 -133.92432,0 0,-511.15573 133.92432,0"
           style="fill:none;stroke:#333333;stroke-width:10;stroke-linecap:round;stroke-linejoin:miter;stroke-miterlimit:53;stroke-opacity:1;stroke-dasharray:none;stroke-dashoffset:243.95000458;display:inline" />
        <path
           sodipodi:nodetypes="cccc"
           inkscape:connector-curvature="0"
           id="rect3877-5"
           d="m 475.0646,811.76687 133.92432,0 0,-511.15575 -133.92432,0"
           style="fill:none;stroke:#333333;stroke-width:10;stroke-linecap:round;stroke-linejoin:miter;stroke-miterlimit:53;stroke-opacity:1;stroke-dasharray:none;stroke-dashoffset:243.95000458;display:inline" />
      </g>
      <path
         id="rect3871-7"
         style="fill:#ffffff;fill-opacity:1;stroke:#333333;stroke-width:8;stroke-linecap:round;stroke-linejoin:bevel;stroke-miterlimit:4;stroke-opacity:1;stroke-dasharray:none;stroke-dashoffset:243.95000458;display:inline"
         d="m -336.98503,410.49607 0.67058,127.34555 c -61.25465,17.13254 -106.67453,73.97908 -106.67453,141.43399 0,81.21194 65.83529,147.04724 147.04724,147.04724 81.21195,0 147.04724,-65.8353 147.04724,-147.04724 0,-67.0565 -44.88494,-123.62957 -106.12676,-141.27845 l 0.12283,-127.50109 m -82.0866,0 -41.04331,0 c -9.4878,0 -17.12599,-7.63819 -17.12599,-17.12598 0,-9.4878 7.63819,-17.12599 17.12599,-17.12599 l 164.17322,0 c 9.48779,0 17.12598,7.63819 17.12598,17.12599 0,9.48779 -7.63819,17.12598 -17.12598,17.12598 l -41.04331,0"
         inkscape:connector-curvature="0" />
      <g
         id="g4706"
         transform="translate(-95.240178,66.471708)"
         style="display:inline">
        <path
           sodipodi:nodetypes="sssss"
           inkscape:connector-curvature="0"
           id="path3009-6"
           d="m -81.23455,613.29134 c 0,65.97122 -53.48023,119.45145 -119.45144,119.45145 -65.97121,0 -120.98065,-53.49796 -119.45145,-119.45145 1.58213,-68.23632 23.07274,18.09992 82.83728,17.55642 65.96848,-0.59992 156.06561,-83.52763 156.06561,-17.55642 z"
           style="fill:#ff6b66;fill-opacity:1;stroke:#ff6b66;stroke-width:6.49867058;stroke-opacity:1" />
        <path
           sodipodi:nodetypes="ccccc"
           inkscape:connector-curvature="0"
           id="rect4649-7"
           d="m -250.72161,666.35733 4.9872,-6.15732 39.85074,44.40036 -1.78904,1.77237 z"
           style="fill:#d4ff66;fill-opacity:1;fill-rule:nonzero;stroke:#333333;stroke-width:2;stroke-linecap:round;stroke-linejoin:miter;stroke-miterlimit:53;stroke-opacity:1;stroke-dasharray:none;stroke-dashoffset:243.95000458" />
        <path
           sodipodi:nodetypes="ccccc"
           inkscape:connector-curvature="0"
           id="rect4649-5"
           d="m -212.03871,616.67508 7.23208,7.52013 -57.71736,51.86117 -2.05577,-2.6593 z"
           style="fill:#d4ff66;fill-opacity:1;fill-rule:nonzero;stroke:#333333;stroke-width:2;stroke-linecap:round;stroke-linejoin:miter;stroke-miterlimit:53;stroke-opacity:1;stroke-dasharray:none;stroke-dashoffset:243.95000458" />
        <path
           transform="matrix(0.74240422,0,0,0.74240422,28.72757,564.88733)"
           d="m -353.14961,128.74016 c 0,13.6984 -11.10475,24.80315 -24.80315,24.80315 -13.6984,0 -24.80315,-11.10475 -24.80315,-24.80315 0,-13.6984 11.10475,-24.80315 24.80315,-24.80315 13.6984,0 24.80315,11.10475 24.80315,24.80315 z"
           sodipodi:ry="24.803148"
           sodipodi:rx="24.803148"
           sodipodi:cy="128.74016"
           sodipodi:cx="-377.95276"
           id="path4543"
           style="fill:#d4ff66;fill-opacity:1;fill-rule:nonzero;stroke:#333333;stroke-width:5.38790035;stroke-linecap:round;stroke-linejoin:miter;stroke-miterlimit:53;stroke-opacity:1;stroke-dasharray:none;stroke-dashoffset:243.95000458"
           sodipodi:type="arc" />
        <path
           sodipodi:nodetypes="ccccc"
           inkscape:connector-curvature="0"
           id="rect4649"
           d="m -213.0198,611.32514 7.7255,-6.81365 44.82515,64.40259 -2.69251,1.8901 z"
           style="fill:#d4ff66;fill-opacity:1;fill-rule:nonzero;stroke:#333333;stroke-width:2;stroke-linecap:round;stroke-linejoin:miter;stroke-miterlimit:53;stroke-opacity:1;stroke-dasharray:none;stroke-dashoffset:243.95000458" />
        <path
           transform="matrix(0.94837971,0,0,0.94837971,154.61597,494.33064)"
           d="m -353.14961,128.74016 c 0,13.6984 -11.10475,24.80315 -24.80315,24.80315 -13.6984,0 -24.80315,-11.10475 -24.80315,-24.80315 0,-13.6984 11.10475,-24.80315 24.80315,-24.80315 13.6984,0 24.80315,11.10475 24.80315,24.80315 z"
           sodipodi:ry="24.803148"
           sodipodi:rx="24.803148"
           sodipodi:cy="128.74016"
           sodipodi:cx="-377.95276"
           id="path4543-7"
           style="fill:#d4ff66;fill-opacity:1;fill-rule:nonzero;stroke:#333333;stroke-width:4.21772003;stroke-linecap:round;stroke-linejoin:miter;stroke-miterlimit:53;stroke-opacity:1;stroke-dasharray:none;stroke-dashoffset:243.95000458"
           sodipodi:type="arc" />
        <path
           sodipodi:nodetypes="ccccc"
           inkscape:connector-curvature="0"
           id="rect4649-8"
           d="m -167.14177,658.58242 6.28594,5.37008 -41.53642,45.49389 -1.82706,-1.93844 z"
           style="fill:#d4ff66;fill-opacity:1;fill-rule:nonzero;stroke:#333333;stroke-width:2;stroke-linecap:round;stroke-linejoin:miter;stroke-miterlimit:53;stroke-opacity:1;stroke-dasharray:none;stroke-dashoffset:243.95000458" />
        <path
           inkscape:transform-center-y="-4.9597859"
           inkscape:transform-center-x="-59.517466"
           transform="matrix(0.62351386,0,0,0.62351386,32.50917,625.39801)"
           d="m -353.14961,128.74016 c 0,13.6984 -11.10475,24.80315 -24.80315,24.80315 -13.6984,0 -24.80315,-11.10475 -24.80315,-24.80315 0,-13.6984 11.10475,-24.80315 24.80315,-24.80315 13.6984,0 24.80315,11.10475 24.80315,24.80315 z"
           sodipodi:ry="24.803148"
           sodipodi:rx="24.803148"
           sodipodi:cy="128.74016"
           sodipodi:cx="-377.95276"
           id="path4543-2"
           style="fill:#d4ff66;fill-opacity:1;fill-rule:nonzero;stroke:#333333;stroke-width:6.41525412;stroke-linecap:round;stroke-linejoin:miter;stroke-miterlimit:53;stroke-opacity:1;stroke-dasharray:none;stroke-dashoffset:243.95000458"
           sodipodi:type="arc" />
        <path
           transform="matrix(0.59206624,0,0,0.59206624,57.198268,586.85603)"
           d="m -353.14961,128.74016 c 0,13.6984 -11.10475,24.80315 -24.80315,24.80315 -13.6984,0 -24.80315,-11.10475 -24.80315,-24.80315 0,-13.6984 11.10475,-24.80315 24.80315,-24.80315 13.6984,0 24.80315,11.10475 24.80315,24.80315 z"
           sodipodi:ry="24.803148"
           sodipodi:rx="24.803148"
           sodipodi:cy="128.74016"
           sodipodi:cx="-377.95276"
           id="path4543-1"
           style="fill:#d4ff66;fill-opacity:1;fill-rule:nonzero;stroke:#333333;stroke-width:6.756001;stroke-linecap:round;stroke-linejoin:miter;stroke-miterlimit:53;stroke-opacity:1;stroke-dasharray:none;stroke-dashoffset:243.95000458"
           sodipodi:type="arc" />
      </g>
    </g>
  </g>
</svg>
